<?xml version="1.0" encoding="UTF-8"?>
<svg id="Layer_2" data-name="Layer 2" xmlns="http://www.w3.org/2000/svg" viewBox="0 0 195.39 261.41">
  <defs>
    <style>
      .cls-1 {
        fill: #fff;
      }

      .cls-1, .cls-2 {
        stroke-width: 0px;
      }

      .cls-2 {
        fill: #00bcd4;
      }
    </style>
  </defs>
  <g id="Camada_1" data-name="Camada 1">
    <g>
      <path class="cls-1" d="M5.01,74.21l61.43,31.74c1.34.69,2.79,1.03,4.25,1.03,2.37,0,4.73-.91,6.54-2.71,1.79-1.78,2.71-4.26,2.71-6.79v-62.18c0-3.46-1.93-6.63-5.01-8.22L26.8,2.22c-5.58-2.88-12.29-2.91-17.72.23C3.4,5.72,0,11.63,0,18.16v47.83C0,69.45,1.93,72.62,5.01,74.21ZM18.51,18.77l42.92,22.17v41.58l-42.92-22.17V18.77Z"/>
      <path class="cls-2" d="M176.88,195.01v47.63l-42.92-22.17v-22.35l36.15-20.61h0s6.77-3.86,6.77-3.86h0s14.02-7.98,14.02-7.98c2.78-1.58,4.49-4.53,4.49-7.72V35.31c0-3.46-1.93-6.63-5.01-8.22L141.92,2.04c-5.63-2.91-12.22-2.7-17.66.56s-8.81,9.52-8.81,16.02v147.42s18.51-10.55,18.51-10.55V18.77l42.92,22.17v111.4L18.51,242.63v-119.76l42.92,22.17v51.79l18.51-10.55v-46.88c0-3.46-1.93-6.63-5.01-8.22l-48.13-24.87c-5.58-2.88-12.29-2.91-17.72.23C3.4,109.82,0,115.73,0,122.26v120.59c0,6.18,2.94,12.09,8.08,15.52,3.05,2.03,6.56,3.04,10.06,3.04,3.25,0,6.5-.87,9.37-2.61l87.94-50.13v17.43c0,3.46,1.93,6.63,5.01,8.22l48.13,24.87c5.58,2.88,12.29,2.91,17.72-.23,5.68-3.28,9.08-9.19,9.08-15.72v-58.8l-18.51,10.55Z"/>
    </g>
  </g>
</svg>